<svg xmlns="http://www.w3.org/2000/svg" viewBox="0 0 330 200"><g><g><g><g><g><line x1="60" x2="55" y1="178" y2="178" fill="#000" stroke="#CCC" stroke-width="1" style="visibility:inherit"/><line x1="60" x2="55" y1="158.222" y2="158.222" fill="#000" stroke="#CCC" stroke-width="1" style="visibility:inherit"/><line x1="60" x2="55" y1="138.444" y2="138.444" fill="#000" stroke="#CCC" stroke-width="1" style="visibility:inherit"/><line x1="60" x2="55" y1="118.667" y2="118.667" fill="#000" stroke="#CCC" stroke-width="1" style="visibility:inherit"/><line x1="60" x2="55" y1="98.889" y2="98.889" fill="#000" stroke="#CCC" stroke-width="1" style="visibility:inherit"/><line x1="60" x2="55" y1="79.111" y2="79.111" fill="#000" stroke="#CCC" stroke-width="1" style="visibility:inherit"/><line x1="60" x2="55" y1="59.333" y2="59.333" fill="#000" stroke="#CCC" stroke-width="1" style="visibility:inherit"/><line x1="60" x2="55" y1="39.556" y2="39.556" fill="#000" stroke="#CCC" stroke-width="1" style="visibility:inherit"/><line x1="60" x2="55" y1="19.778" y2="19.778" fill="#000" stroke="#CCC" stroke-width="1" style="visibility:inherit"/><line x1="60" x2="55" y1="0" y2="0" fill="#000" stroke="#CCC" stroke-width="1" style="visibility:inherit"/></g><g><text x="0" y="178" fill="#32313F" stroke="none" stroke-width="1" dx="0em" dy=".3em" transform="translate(50, 0)" style="text-anchor:end;visibility:hidden;font-family:Roboto,sans-serif;font-size:12px;font-weight:200">0.95</text><text x="0" y="158.222" fill="#32313F" stroke="none" stroke-width="1" dx="0em" dy=".3em" transform="translate(50, 0)" style="text-anchor:end;visibility:inherit;font-family:Roboto,sans-serif;font-size:12px;font-weight:200">0.955</text><text x="0" y="138.444" fill="#32313F" stroke="none" stroke-width="1" dx="0em" dy=".3em" transform="translate(50, 0)" style="text-anchor:end;visibility:hidden;font-family:Roboto,sans-serif;font-size:12px;font-weight:200">0.96</text><text x="0" y="118.667" fill="#32313F" stroke="none" stroke-width="1" dx="0em" dy=".3em" transform="translate(50, 0)" style="text-anchor:end;visibility:inherit;font-family:Roboto,sans-serif;font-size:12px;font-weight:200">0.965</text><text x="0" y="98.889" fill="#32313F" stroke="none" stroke-width="1" dx="0em" dy=".3em" transform="translate(50, 0)" style="text-anchor:end;visibility:hidden;font-family:Roboto,sans-serif;font-size:12px;font-weight:200">0.97</text><text x="0" y="79.111" fill="#32313F" stroke="none" stroke-width="1" dx="0em" dy=".3em" transform="translate(50, 0)" style="text-anchor:end;visibility:inherit;font-family:Roboto,sans-serif;font-size:12px;font-weight:200">0.975</text><text x="0" y="59.333" fill="#32313F" stroke="none" stroke-width="1" dx="0em" dy=".3em" transform="translate(50, 0)" style="text-anchor:end;visibility:hidden;font-family:Roboto,sans-serif;font-size:12px;font-weight:200">0.98</text><text x="0" y="39.556" fill="#32313F" stroke="none" stroke-width="1" dx="0em" dy=".3em" transform="translate(50, 0)" style="text-anchor:end;visibility:inherit;font-family:Roboto,sans-serif;font-size:12px;font-weight:200">0.985</text><text x="0" y="19.778" fill="#32313F" stroke="none" stroke-width="1" dx="0em" dy=".3em" transform="translate(50, 0)" style="text-anchor:end;visibility:hidden;font-family:Roboto,sans-serif;font-size:12px;font-weight:200">0.99</text><text x="0" y="0" fill="#32313F" stroke="none" stroke-width="1" dx="0em" dy=".3em" transform="translate(50, 0)" style="text-anchor:end;visibility:hidden;font-family:Roboto,sans-serif;font-size:12px;font-weight:200">0.995</text></g><line x1="60" x2="60" y1="0" y2="178" fill="#000" stroke="#CCC" stroke-width="1"/></g></g><g clip-path="url(#clip_0)" transform="translate(60, 0)"><clipPath id="clip_0"><rect width="270" height="178"/></clipPath><g><g><g><line x1="0" x2="0" y1="0" y2="178" fill="#000" stroke="#3C3C3C" stroke-width="1" opacity=".25"/><line x1="33.75" x2="33.75" y1="0" y2="178" fill="#000" stroke="#3C3C3C" stroke-width="1" opacity=".25"/><line x1="67.5" x2="67.5" y1="0" y2="178" fill="#000" stroke="#3C3C3C" stroke-width="1" opacity=".25"/><line x1="101.25" x2="101.25" y1="0" y2="178" fill="#000" stroke="#3C3C3C" stroke-width="1" opacity=".25"/><line x1="135" x2="135" y1="0" y2="178" fill="#000" stroke="#3C3C3C" stroke-width="1" opacity=".25"/><line x1="168.75" x2="168.75" y1="0" y2="178" fill="#000" stroke="#3C3C3C" stroke-width="1" opacity=".25"/><line x1="202.5" x2="202.5" y1="0" y2="178" fill="#000" stroke="#3C3C3C" stroke-width="1" opacity=".25"/><line x1="236.25" x2="236.25" y1="0" y2="178" fill="#000" stroke="#3C3C3C" stroke-width="1" opacity=".25"/><line x1="270" x2="270" y1="0" y2="178" fill="#000" stroke="#3C3C3C" stroke-width="1" opacity=".25"/></g><g><line x1="0" x2="270" y1="178" y2="178" fill="#000" stroke="#3C3C3C" stroke-width="1" opacity=".25"/><line x1="0" x2="270" y1="158.222" y2="158.222" fill="#000" stroke="#3C3C3C" stroke-width="1" opacity=".25"/><line x1="0" x2="270" y1="138.444" y2="138.444" fill="#000" stroke="#3C3C3C" stroke-width="1" opacity=".25"/><line x1="0" x2="270" y1="118.667" y2="118.667" fill="#000" stroke="#3C3C3C" stroke-width="1" opacity=".25"/><line x1="0" x2="270" y1="98.889" y2="98.889" fill="#000" stroke="#3C3C3C" stroke-width="1" opacity=".25"/><line x1="0" x2="270" y1="79.111" y2="79.111" fill="#000" stroke="#3C3C3C" stroke-width="1" opacity=".25"/><line x1="0" x2="270" y1="59.333" y2="59.333" fill="#000" stroke="#3C3C3C" stroke-width="1" opacity=".25"/><line x1="0" x2="270" y1="39.556" y2="39.556" fill="#000" stroke="#3C3C3C" stroke-width="1" opacity=".25"/><line x1="0" x2="270" y1="19.778" y2="19.778" fill="#000" stroke="#3C3C3C" stroke-width="1" opacity=".25"/><line x1="0" x2="270" y1="0" y2="0" fill="#000" stroke="#3C3C3C" stroke-width="1" opacity=".25"/></g></g></g><g><g><line x1="0" x2="270" y1="3935.778" y2="3935.778" fill="#000" stroke="#999" stroke-width="1.5"/></g></g><g><g><line x1="0" x2="0" y1="0" y2="178" fill="#000" stroke="#999" stroke-width="1.5"/></g></g><g><g><g><g><g><path style="fill:none" fill="none" stroke="#FF7043" stroke-width="2" d="M14.47875,142.65985192192912L28.9575,157.02175002627843L43.436249999999994,148.07718509016664L57.915,121.91823095044307L72.39375,127.821380410734L86.87249999999999,111.1073595750072L101.35125000000001,101.26630128638352L115.83,82.64632932922746L130.30875,72.95722601356616L144.7875,60.51018421725716L159.26625,48.318746979592014L173.74499999999998,48.33805497230178L188.22375,39.463360478911L202.70250000000001,31.925542651725415L217.18124999999998,28.992127817900986L231.66,25.013650642930397L246.13875000000002,26.11433783797685L260.6175,30.57845053283406"/></g></g></g></g><g opacity=".2"><g><g><g><path style="fill:none" fill="none" stroke="#FF7043" stroke-width="2" d="M14.47875,142.65985192192912L28.9575,165.63888888888874L43.436249999999994,139.4904027514986L57.915,91.15530088212745L72.39375,135.52853234608955L86.87249999999999,87.98585171169695L101.35125000000001,87.19343047671839L115.83,55.49823146396206L130.30875,58.66768063439257L144.7875,42.02777777777773L159.26625,30.14216656155052L173.74499999999998,48.3669118881225L188.22375,26.180296156141452L202.70250000000001,20.63358328077524L217.18124999999998,24.59545368618431L231.66,19.0487408108181L246.13875000000002,27.764902856614817L260.6175,37.27348613739008"/></g></g></g></g></g></g><g clip-path="url(#clip_1)" transform="translate(60, 178)"><clipPath id="clip_1"><rect width="270" height="22"/></clipPath><g><g><line x1="0" x2="0" y1="0" y2="5" fill="#000" stroke="#CCC" stroke-width="1" style="visibility:inherit"/><line x1="33.75" x2="33.75" y1="0" y2="5" fill="#000" stroke="#CCC" stroke-width="1" style="visibility:inherit"/><line x1="67.5" x2="67.5" y1="0" y2="5" fill="#000" stroke="#CCC" stroke-width="1" style="visibility:inherit"/><line x1="101.25" x2="101.25" y1="0" y2="5" fill="#000" stroke="#CCC" stroke-width="1" style="visibility:inherit"/><line x1="135" x2="135" y1="0" y2="5" fill="#000" stroke="#CCC" stroke-width="1" style="visibility:inherit"/><line x1="168.75" x2="168.75" y1="0" y2="5" fill="#000" stroke="#CCC" stroke-width="1" style="visibility:inherit"/><line x1="202.5" x2="202.5" y1="0" y2="5" fill="#000" stroke="#CCC" stroke-width="1" style="visibility:inherit"/><line x1="236.25" x2="236.25" y1="0" y2="5" fill="#000" stroke="#CCC" stroke-width="1" style="visibility:inherit"/><line x1="270" x2="270" y1="0" y2="5" fill="#000" stroke="#CCC" stroke-width="1" style="visibility:inherit"/></g><g><text x="0" y="0" fill="#32313F" stroke="none" stroke-width="1" dx="0em" dy=".95em" transform="translate(0, 8)" style="text-anchor:middle;visibility:hidden;font-family:Roboto,sans-serif;font-size:12px;font-weight:200">0</text><text x="33.75" y="0" fill="#32313F" stroke="none" stroke-width="1" dx="0em" dy=".95em" transform="translate(0, 8)" style="text-anchor:middle;visibility:inherit;font-family:Roboto,sans-serif;font-size:12px;font-weight:200">1k</text><text x="67.5" y="0" fill="#32313F" stroke="none" stroke-width="1" dx="0em" dy=".95em" transform="translate(0, 8)" style="text-anchor:middle;visibility:inherit;font-family:Roboto,sans-serif;font-size:12px;font-weight:200">2k</text><text x="101.25" y="0" fill="#32313F" stroke="none" stroke-width="1" dx="0em" dy=".95em" transform="translate(0, 8)" style="text-anchor:middle;visibility:inherit;font-family:Roboto,sans-serif;font-size:12px;font-weight:200">3k</text><text x="135" y="0" fill="#32313F" stroke="none" stroke-width="1" dx="0em" dy=".95em" transform="translate(0, 8)" style="text-anchor:middle;visibility:inherit;font-family:Roboto,sans-serif;font-size:12px;font-weight:200">4k</text><text x="168.75" y="0" fill="#32313F" stroke="none" stroke-width="1" dx="0em" dy=".95em" transform="translate(0, 8)" style="text-anchor:middle;visibility:inherit;font-family:Roboto,sans-serif;font-size:12px;font-weight:200">5k</text><text x="202.5" y="0" fill="#32313F" stroke="none" stroke-width="1" dx="0em" dy=".95em" transform="translate(0, 8)" style="text-anchor:middle;visibility:inherit;font-family:Roboto,sans-serif;font-size:12px;font-weight:200">6k</text><text x="236.25" y="0" fill="#32313F" stroke="none" stroke-width="1" dx="0em" dy=".95em" transform="translate(0, 8)" style="text-anchor:middle;visibility:inherit;font-family:Roboto,sans-serif;font-size:12px;font-weight:200">7k</text><text x="270" y="0" fill="#32313F" stroke="none" stroke-width="1" dx="0em" dy=".95em" transform="translate(0, 8)" style="text-anchor:middle;visibility:hidden;font-family:Roboto,sans-serif;font-size:12px;font-weight:200">8k</text></g><line x1="0" x2="270" y1="0" y2="0" fill="#000" stroke="#CCC" stroke-width="1"/></g></g></g></g></svg>