<svg xmlns="http://www.w3.org/2000/svg" viewBox="0 0 330 200"><g><g><g><g><g><line x1="61.953" x2="56.953" y1="178" y2="178" fill="#000" stroke="#CCC" stroke-width="1" style="visibility:inherit"/><line x1="61.953" x2="56.953" y1="158.222" y2="158.222" fill="#000" stroke="#CCC" stroke-width="1" style="visibility:inherit"/><line x1="61.953" x2="56.953" y1="138.444" y2="138.444" fill="#000" stroke="#CCC" stroke-width="1" style="visibility:inherit"/><line x1="61.953" x2="56.953" y1="118.667" y2="118.667" fill="#000" stroke="#CCC" stroke-width="1" style="visibility:inherit"/><line x1="61.953" x2="56.953" y1="98.889" y2="98.889" fill="#000" stroke="#CCC" stroke-width="1" style="visibility:inherit"/><line x1="61.953" x2="56.953" y1="79.111" y2="79.111" fill="#000" stroke="#CCC" stroke-width="1" style="visibility:inherit"/><line x1="61.953" x2="56.953" y1="59.333" y2="59.333" fill="#000" stroke="#CCC" stroke-width="1" style="visibility:inherit"/><line x1="61.953" x2="56.953" y1="39.556" y2="39.556" fill="#000" stroke="#CCC" stroke-width="1" style="visibility:inherit"/><line x1="61.953" x2="56.953" y1="19.778" y2="19.778" fill="#000" stroke="#CCC" stroke-width="1" style="visibility:inherit"/><line x1="61.953" x2="56.953" y1="0" y2="0" fill="#000" stroke="#CCC" stroke-width="1" style="visibility:inherit"/></g><g><text x="0" y="178" fill="#32313F" stroke="none" stroke-width="1" dx="0em" dy=".3em" transform="translate(51.953125, 0)" style="text-anchor:end;visibility:hidden;font-family:Roboto,sans-serif;font-size:12px;font-weight:200">0.95</text><text x="0" y="158.222" fill="#32313F" stroke="none" stroke-width="1" dx="0em" dy=".3em" transform="translate(51.953125, 0)" style="text-anchor:end;visibility:inherit;font-family:Roboto,sans-serif;font-size:12px;font-weight:200">0.955</text><text x="0" y="138.444" fill="#32313F" stroke="none" stroke-width="1" dx="0em" dy=".3em" transform="translate(51.953125, 0)" style="text-anchor:end;visibility:hidden;font-family:Roboto,sans-serif;font-size:12px;font-weight:200">0.96</text><text x="0" y="118.667" fill="#32313F" stroke="none" stroke-width="1" dx="0em" dy=".3em" transform="translate(51.953125, 0)" style="text-anchor:end;visibility:inherit;font-family:Roboto,sans-serif;font-size:12px;font-weight:200">0.965</text><text x="0" y="98.889" fill="#32313F" stroke="none" stroke-width="1" dx="0em" dy=".3em" transform="translate(51.953125, 0)" style="text-anchor:end;visibility:hidden;font-family:Roboto,sans-serif;font-size:12px;font-weight:200">0.97</text><text x="0" y="79.111" fill="#32313F" stroke="none" stroke-width="1" dx="0em" dy=".3em" transform="translate(51.953125, 0)" style="text-anchor:end;visibility:inherit;font-family:Roboto,sans-serif;font-size:12px;font-weight:200">0.975</text><text x="0" y="59.333" fill="#32313F" stroke="none" stroke-width="1" dx="0em" dy=".3em" transform="translate(51.953125, 0)" style="text-anchor:end;visibility:hidden;font-family:Roboto,sans-serif;font-size:12px;font-weight:200">0.98</text><text x="0" y="39.556" fill="#32313F" stroke="none" stroke-width="1" dx="0em" dy=".3em" transform="translate(51.953125, 0)" style="text-anchor:end;visibility:inherit;font-family:Roboto,sans-serif;font-size:12px;font-weight:200">0.985</text><text x="0" y="19.778" fill="#32313F" stroke="none" stroke-width="1" dx="0em" dy=".3em" transform="translate(51.953125, 0)" style="text-anchor:end;visibility:hidden;font-family:Roboto,sans-serif;font-size:12px;font-weight:200">0.99</text><text x="0" y="0" fill="#32313F" stroke="none" stroke-width="1" dx="0em" dy=".3em" transform="translate(51.953125, 0)" style="text-anchor:end;visibility:hidden;font-family:Roboto,sans-serif;font-size:12px;font-weight:200">0.995</text></g><line x1="61.953" x2="61.953" y1="0" y2="178" fill="#000" stroke="#CCC" stroke-width="1"/></g></g><g clip-path="url(#clip_0)" transform="translate(61, 0)"><clipPath id="clip_0"><rect width="268" height="178"/></clipPath><g><g><g><line x1="0" x2="0" y1="0" y2="178" fill="#000" stroke="#3C3C3C" stroke-width="1" opacity=".25"/><line x1="29.783" x2="29.783" y1="0" y2="178" fill="#000" stroke="#3C3C3C" stroke-width="1" opacity=".25"/><line x1="59.566" x2="59.566" y1="0" y2="178" fill="#000" stroke="#3C3C3C" stroke-width="1" opacity=".25"/><line x1="89.349" x2="89.349" y1="0" y2="178" fill="#000" stroke="#3C3C3C" stroke-width="1" opacity=".25"/><line x1="119.132" x2="119.132" y1="0" y2="178" fill="#000" stroke="#3C3C3C" stroke-width="1" opacity=".25"/><line x1="148.915" x2="148.915" y1="0" y2="178" fill="#000" stroke="#3C3C3C" stroke-width="1" opacity=".25"/><line x1="178.698" x2="178.698" y1="0" y2="178" fill="#000" stroke="#3C3C3C" stroke-width="1" opacity=".25"/><line x1="208.481" x2="208.481" y1="0" y2="178" fill="#000" stroke="#3C3C3C" stroke-width="1" opacity=".25"/><line x1="238.264" x2="238.264" y1="0" y2="178" fill="#000" stroke="#3C3C3C" stroke-width="1" opacity=".25"/><line x1="268.047" x2="268.047" y1="0" y2="178" fill="#000" stroke="#3C3C3C" stroke-width="1" opacity=".25"/></g><g><line x1="0" x2="268.047" y1="178" y2="178" fill="#000" stroke="#3C3C3C" stroke-width="1" opacity=".25"/><line x1="0" x2="268.047" y1="158.222" y2="158.222" fill="#000" stroke="#3C3C3C" stroke-width="1" opacity=".25"/><line x1="0" x2="268.047" y1="138.444" y2="138.444" fill="#000" stroke="#3C3C3C" stroke-width="1" opacity=".25"/><line x1="0" x2="268.047" y1="118.667" y2="118.667" fill="#000" stroke="#3C3C3C" stroke-width="1" opacity=".25"/><line x1="0" x2="268.047" y1="98.889" y2="98.889" fill="#000" stroke="#3C3C3C" stroke-width="1" opacity=".25"/><line x1="0" x2="268.047" y1="79.111" y2="79.111" fill="#000" stroke="#3C3C3C" stroke-width="1" opacity=".25"/><line x1="0" x2="268.047" y1="59.333" y2="59.333" fill="#000" stroke="#3C3C3C" stroke-width="1" opacity=".25"/><line x1="0" x2="268.047" y1="39.556" y2="39.556" fill="#000" stroke="#3C3C3C" stroke-width="1" opacity=".25"/><line x1="0" x2="268.047" y1="19.778" y2="19.778" fill="#000" stroke="#3C3C3C" stroke-width="1" opacity=".25"/><line x1="0" x2="268.047" y1="0" y2="0" fill="#000" stroke="#3C3C3C" stroke-width="1" opacity=".25"/></g></g></g><g><g><line x1="0" x2="268.047" y1="3935.778" y2="3935.778" fill="#000" stroke="#999" stroke-width="1.5"/></g></g><g><g><line x1="0" x2="0" y1="0" y2="178" fill="#000" stroke="#999" stroke-width="1.5"/></g></g><g><g><g><g><g><path style="fill:none" fill="none" stroke="#FF7043" stroke-width="2" d="M12.776901041666667,136.32095358106812L25.553802083333334,159.1017378833553L38.330703125,152.7343830078367L51.10760416666667,115.33150160974958L63.88450520833334,118.93638516288672L76.66140625,100.6307990693547L89.43830729166666,88.57940270663289L102.21520833333334,77.37746990404919L114.992109375,71.73844244790322L127.76901041666667,58.50638773678029L140.54591145833334,47.75553818119524L153.3228125,48.000621156256734L166.0997135416667,39.26107670461879L178.87661458333332,33.39022685483502L191.65351562499998,26.69967546624644L204.43041666666667,23.00441645070361L217.20731770833333,24.908933384163213L229.98421875,28.904349085519268L242.76111979166666,27.18068589268978L255.53802083333335,25.5125950340597L255.56780381944444,21.6591891446167L255.59758680555558,15.860689003758981"/></g></g></g></g><g opacity=".2"><g><g><g><path style="fill:none" fill="none" stroke="#FF7043" stroke-width="2" d="M12.776901041666667,136.32095358106812L25.553802083333334,172.77020846472828L38.330703125,146.62172232733818L51.10760416666667,71.34571308559833L63.88450520833334,123.64292112986234L76.66140625,75.3075834910074L89.43830729166666,71.34571308559833L102.21520833333334,61.04494433932827L114.992109375,63.421972274780195L127.76901041666667,38.85832860734722L140.54591145833334,31.726773262023887L153.3228125,48.3669118881225L166.0997135416667,26.180296156141452L178.87661458333332,24.59545368618431L191.65351562499998,16.671712875366172L204.43041666666667,17.46413411034475L217.20731770833333,27.764902856614817L229.98421875,34.89645820193815L242.76111979166666,24.59545368618431L255.53802083333335,23.01061121622717L255.56780381944444,15.87929164038761L255.59758680555558,7.163129594590911"/></g></g></g></g></g></g><g clip-path="url(#clip_1)" transform="translate(61, 178)"><clipPath id="clip_1"><rect width="268" height="22"/></clipPath><g><g><line x1="0" x2="0" y1="0" y2="5" fill="#000" stroke="#CCC" stroke-width="1" style="visibility:inherit"/><line x1="29.783" x2="29.783" y1="0" y2="5" fill="#000" stroke="#CCC" stroke-width="1" style="visibility:inherit"/><line x1="59.566" x2="59.566" y1="0" y2="5" fill="#000" stroke="#CCC" stroke-width="1" style="visibility:inherit"/><line x1="89.349" x2="89.349" y1="0" y2="5" fill="#000" stroke="#CCC" stroke-width="1" style="visibility:inherit"/><line x1="119.132" x2="119.132" y1="0" y2="5" fill="#000" stroke="#CCC" stroke-width="1" style="visibility:inherit"/><line x1="148.915" x2="148.915" y1="0" y2="5" fill="#000" stroke="#CCC" stroke-width="1" style="visibility:inherit"/><line x1="178.698" x2="178.698" y1="0" y2="5" fill="#000" stroke="#CCC" stroke-width="1" style="visibility:inherit"/><line x1="208.481" x2="208.481" y1="0" y2="5" fill="#000" stroke="#CCC" stroke-width="1" style="visibility:inherit"/><line x1="238.264" x2="238.264" y1="0" y2="5" fill="#000" stroke="#CCC" stroke-width="1" style="visibility:inherit"/><line x1="268.047" x2="268.047" y1="0" y2="5" fill="#000" stroke="#CCC" stroke-width="1" style="visibility:inherit"/></g><g><text x="0" y="0" fill="#32313F" stroke="none" stroke-width="1" dx="0em" dy=".95em" transform="translate(0, 8)" style="text-anchor:middle;visibility:hidden;font-family:Roboto,sans-serif;font-size:12px;font-weight:200">0</text><text x="29.783" y="0" fill="#32313F" stroke="none" stroke-width="1" dx="0em" dy=".95em" transform="translate(0, 8)" style="text-anchor:middle;visibility:inherit;font-family:Roboto,sans-serif;font-size:12px;font-weight:200">1k</text><text x="59.566" y="0" fill="#32313F" stroke="none" stroke-width="1" dx="0em" dy=".95em" transform="translate(0, 8)" style="text-anchor:middle;visibility:inherit;font-family:Roboto,sans-serif;font-size:12px;font-weight:200">2k</text><text x="89.349" y="0" fill="#32313F" stroke="none" stroke-width="1" dx="0em" dy=".95em" transform="translate(0, 8)" style="text-anchor:middle;visibility:inherit;font-family:Roboto,sans-serif;font-size:12px;font-weight:200">3k</text><text x="119.132" y="0" fill="#32313F" stroke="none" stroke-width="1" dx="0em" dy=".95em" transform="translate(0, 8)" style="text-anchor:middle;visibility:inherit;font-family:Roboto,sans-serif;font-size:12px;font-weight:200">4k</text><text x="148.915" y="0" fill="#32313F" stroke="none" stroke-width="1" dx="0em" dy=".95em" transform="translate(0, 8)" style="text-anchor:middle;visibility:inherit;font-family:Roboto,sans-serif;font-size:12px;font-weight:200">5k</text><text x="178.698" y="0" fill="#32313F" stroke="none" stroke-width="1" dx="0em" dy=".95em" transform="translate(0, 8)" style="text-anchor:middle;visibility:inherit;font-family:Roboto,sans-serif;font-size:12px;font-weight:200">6k</text><text x="208.481" y="0" fill="#32313F" stroke="none" stroke-width="1" dx="0em" dy=".95em" transform="translate(0, 8)" style="text-anchor:middle;visibility:inherit;font-family:Roboto,sans-serif;font-size:12px;font-weight:200">7k</text><text x="238.264" y="0" fill="#32313F" stroke="none" stroke-width="1" dx="0em" dy=".95em" transform="translate(0, 8)" style="text-anchor:middle;visibility:inherit;font-family:Roboto,sans-serif;font-size:12px;font-weight:200">8k</text><text x="268.047" y="0" fill="#32313F" stroke="none" stroke-width="1" dx="0em" dy=".95em" transform="translate(0, 8)" style="text-anchor:middle;visibility:hidden;font-family:Roboto,sans-serif;font-size:12px;font-weight:200">9k</text></g><line x1="0" x2="268.047" y1="0" y2="0" fill="#000" stroke="#CCC" stroke-width="1"/></g></g></g></g></svg>