<svg xmlns="http://www.w3.org/2000/svg" viewBox="0 0 330 200"><g><g><g><g><g><line x1="51.563" x2="46.563" y1="178" y2="178" fill="#000" stroke="#CCC" stroke-width="1" style="visibility:inherit"/><line x1="51.563" x2="46.563" y1="158.222" y2="158.222" fill="#000" stroke="#CCC" stroke-width="1" style="visibility:inherit"/><line x1="51.563" x2="46.563" y1="138.444" y2="138.444" fill="#000" stroke="#CCC" stroke-width="1" style="visibility:inherit"/><line x1="51.563" x2="46.563" y1="118.667" y2="118.667" fill="#000" stroke="#CCC" stroke-width="1" style="visibility:inherit"/><line x1="51.563" x2="46.563" y1="98.889" y2="98.889" fill="#000" stroke="#CCC" stroke-width="1" style="visibility:inherit"/><line x1="51.563" x2="46.563" y1="79.111" y2="79.111" fill="#000" stroke="#CCC" stroke-width="1" style="visibility:inherit"/><line x1="51.563" x2="46.563" y1="59.333" y2="59.333" fill="#000" stroke="#CCC" stroke-width="1" style="visibility:inherit"/><line x1="51.563" x2="46.563" y1="39.556" y2="39.556" fill="#000" stroke="#CCC" stroke-width="1" style="visibility:inherit"/><line x1="51.563" x2="46.563" y1="19.778" y2="19.778" fill="#000" stroke="#CCC" stroke-width="1" style="visibility:inherit"/><line x1="51.563" x2="46.563" y1="0" y2="0" fill="#000" stroke="#CCC" stroke-width="1" style="visibility:inherit"/></g><g><text x="0" y="178" fill="#32313F" stroke="none" stroke-width="1" dx="0em" dy=".3em" transform="translate(41.5625, 0)" style="text-anchor:end;visibility:hidden;font-family:Roboto,sans-serif;font-size:12px;font-weight:200">0.9</text><text x="0" y="158.222" fill="#32313F" stroke="none" stroke-width="1" dx="0em" dy=".3em" transform="translate(41.5625, 0)" style="text-anchor:end;visibility:inherit;font-family:Roboto,sans-serif;font-size:12px;font-weight:200">0.91</text><text x="0" y="138.444" fill="#32313F" stroke="none" stroke-width="1" dx="0em" dy=".3em" transform="translate(41.5625, 0)" style="text-anchor:end;visibility:hidden;font-family:Roboto,sans-serif;font-size:12px;font-weight:200">0.92</text><text x="0" y="118.667" fill="#32313F" stroke="none" stroke-width="1" dx="0em" dy=".3em" transform="translate(41.5625, 0)" style="text-anchor:end;visibility:inherit;font-family:Roboto,sans-serif;font-size:12px;font-weight:200">0.93</text><text x="0" y="98.889" fill="#32313F" stroke="none" stroke-width="1" dx="0em" dy=".3em" transform="translate(41.5625, 0)" style="text-anchor:end;visibility:hidden;font-family:Roboto,sans-serif;font-size:12px;font-weight:200">0.94</text><text x="0" y="79.111" fill="#32313F" stroke="none" stroke-width="1" dx="0em" dy=".3em" transform="translate(41.5625, 0)" style="text-anchor:end;visibility:inherit;font-family:Roboto,sans-serif;font-size:12px;font-weight:200">0.95</text><text x="0" y="59.333" fill="#32313F" stroke="none" stroke-width="1" dx="0em" dy=".3em" transform="translate(41.5625, 0)" style="text-anchor:end;visibility:hidden;font-family:Roboto,sans-serif;font-size:12px;font-weight:200">0.96</text><text x="0" y="39.556" fill="#32313F" stroke="none" stroke-width="1" dx="0em" dy=".3em" transform="translate(41.5625, 0)" style="text-anchor:end;visibility:inherit;font-family:Roboto,sans-serif;font-size:12px;font-weight:200">0.97</text><text x="0" y="19.778" fill="#32313F" stroke="none" stroke-width="1" dx="0em" dy=".3em" transform="translate(41.5625, 0)" style="text-anchor:end;visibility:hidden;font-family:Roboto,sans-serif;font-size:12px;font-weight:200">0.98</text><text x="0" y="0" fill="#32313F" stroke="none" stroke-width="1" dx="0em" dy=".3em" transform="translate(41.5625, 0)" style="text-anchor:end;visibility:hidden;font-family:Roboto,sans-serif;font-size:12px;font-weight:200">0.99</text></g><line x1="51.563" x2="51.563" y1="0" y2="178" fill="#000" stroke="#CCC" stroke-width="1"/></g></g><g clip-path="url(#clip_0)" transform="translate(51, 0)"><clipPath id="clip_0"><rect width="278" height="178"/></clipPath><g><g><g><line x1="0" x2="0" y1="0" y2="178" fill="#000" stroke="#3C3C3C" stroke-width="1" opacity=".25"/><line x1="34.805" x2="34.805" y1="0" y2="178" fill="#000" stroke="#3C3C3C" stroke-width="1" opacity=".25"/><line x1="69.609" x2="69.609" y1="0" y2="178" fill="#000" stroke="#3C3C3C" stroke-width="1" opacity=".25"/><line x1="104.414" x2="104.414" y1="0" y2="178" fill="#000" stroke="#3C3C3C" stroke-width="1" opacity=".25"/><line x1="139.219" x2="139.219" y1="0" y2="178" fill="#000" stroke="#3C3C3C" stroke-width="1" opacity=".25"/><line x1="174.023" x2="174.023" y1="0" y2="178" fill="#000" stroke="#3C3C3C" stroke-width="1" opacity=".25"/><line x1="208.828" x2="208.828" y1="0" y2="178" fill="#000" stroke="#3C3C3C" stroke-width="1" opacity=".25"/><line x1="243.633" x2="243.633" y1="0" y2="178" fill="#000" stroke="#3C3C3C" stroke-width="1" opacity=".25"/><line x1="278.438" x2="278.438" y1="0" y2="178" fill="#000" stroke="#3C3C3C" stroke-width="1" opacity=".25"/></g><g><line x1="0" x2="278.438" y1="178" y2="178" fill="#000" stroke="#3C3C3C" stroke-width="1" opacity=".25"/><line x1="0" x2="278.438" y1="158.222" y2="158.222" fill="#000" stroke="#3C3C3C" stroke-width="1" opacity=".25"/><line x1="0" x2="278.438" y1="138.444" y2="138.444" fill="#000" stroke="#3C3C3C" stroke-width="1" opacity=".25"/><line x1="0" x2="278.438" y1="118.667" y2="118.667" fill="#000" stroke="#3C3C3C" stroke-width="1" opacity=".25"/><line x1="0" x2="278.438" y1="98.889" y2="98.889" fill="#000" stroke="#3C3C3C" stroke-width="1" opacity=".25"/><line x1="0" x2="278.438" y1="79.111" y2="79.111" fill="#000" stroke="#3C3C3C" stroke-width="1" opacity=".25"/><line x1="0" x2="278.438" y1="59.333" y2="59.333" fill="#000" stroke="#3C3C3C" stroke-width="1" opacity=".25"/><line x1="0" x2="278.438" y1="39.556" y2="39.556" fill="#000" stroke="#3C3C3C" stroke-width="1" opacity=".25"/><line x1="0" x2="278.438" y1="19.778" y2="19.778" fill="#000" stroke="#3C3C3C" stroke-width="1" opacity=".25"/><line x1="0" x2="278.438" y1="0" y2="0" fill="#000" stroke="#3C3C3C" stroke-width="1" opacity=".25"/></g></g></g><g><g><line x1="0" x2="278.438" y1="1958" y2="1958" fill="#000" stroke="#999" stroke-width="1.5"/></g></g><g><g><line x1="0" x2="0" y1="0" y2="178" fill="#000" stroke="#999" stroke-width="1.5"/></g></g><g><g><g><g><g><path style="fill:none" fill="none" stroke="#FF7043" stroke-width="2" d="M14.9312109375,135.9494987593757L29.862421875,153.4665083024235L44.7936328125,146.22210748720036L59.72484375,115.6042478964998L74.6560546875,120.18761831271499L89.587265625,103.33496412773898L104.5184765625,92.83036746960502L119.4496875,78.3790706275479L134.3808984375,70.94331770405657L149.312109375,58.41362018367378L164.2433203125,47.188091827411164L179.17453125,47.350407846137216L194.1057421875,38.68776195671677L209.036953125,32.12331710172869L223.9681640625,27.405104165434246L238.899375,23.631875200885453L253.83058593750002,25.119450651221307L268.761796875,29.275781743649773"/></g></g></g></g><g opacity=".2"><g><g><g><path style="fill:none" fill="none" stroke="#FF7043" stroke-width="2" d="M14.9312109375,135.9494987593757L29.862421875,163.97671402825253L44.7936328125,139.26748270458648L59.72484375,79.59764501783584L74.6560546875,126.1716667281257L89.587265625,80.02167643441095L104.5184765625,77.80862617492676L119.4496875,57.30894109937879L134.3808984375,59.97702646255493L149.312109375,39.80847962697346L164.2433203125,30.451614009009457L179.17453125,47.59299855762058L194.1057421875,25.722078164418527L209.036953125,22.289510250091553L223.9681640625,20.333330843183727L238.899375,17.97469292746649L253.83058593750002,27.350184334648972L268.761796875,35.509223090277764"/></g></g></g></g></g></g><g clip-path="url(#clip_1)" transform="translate(51, 178)"><clipPath id="clip_1"><rect width="278" height="22"/></clipPath><g><g><line x1="0" x2="0" y1="0" y2="5" fill="#000" stroke="#CCC" stroke-width="1" style="visibility:inherit"/><line x1="34.805" x2="34.805" y1="0" y2="5" fill="#000" stroke="#CCC" stroke-width="1" style="visibility:inherit"/><line x1="69.609" x2="69.609" y1="0" y2="5" fill="#000" stroke="#CCC" stroke-width="1" style="visibility:inherit"/><line x1="104.414" x2="104.414" y1="0" y2="5" fill="#000" stroke="#CCC" stroke-width="1" style="visibility:inherit"/><line x1="139.219" x2="139.219" y1="0" y2="5" fill="#000" stroke="#CCC" stroke-width="1" style="visibility:inherit"/><line x1="174.023" x2="174.023" y1="0" y2="5" fill="#000" stroke="#CCC" stroke-width="1" style="visibility:inherit"/><line x1="208.828" x2="208.828" y1="0" y2="5" fill="#000" stroke="#CCC" stroke-width="1" style="visibility:inherit"/><line x1="243.633" x2="243.633" y1="0" y2="5" fill="#000" stroke="#CCC" stroke-width="1" style="visibility:inherit"/><line x1="278.438" x2="278.438" y1="0" y2="5" fill="#000" stroke="#CCC" stroke-width="1" style="visibility:inherit"/></g><g><text x="0" y="0" fill="#32313F" stroke="none" stroke-width="1" dx="0em" dy=".95em" transform="translate(0, 8)" style="text-anchor:middle;visibility:hidden;font-family:Roboto,sans-serif;font-size:12px;font-weight:200">0</text><text x="34.805" y="0" fill="#32313F" stroke="none" stroke-width="1" dx="0em" dy=".95em" transform="translate(0, 8)" style="text-anchor:middle;visibility:inherit;font-family:Roboto,sans-serif;font-size:12px;font-weight:200">1k</text><text x="69.609" y="0" fill="#32313F" stroke="none" stroke-width="1" dx="0em" dy=".95em" transform="translate(0, 8)" style="text-anchor:middle;visibility:inherit;font-family:Roboto,sans-serif;font-size:12px;font-weight:200">2k</text><text x="104.414" y="0" fill="#32313F" stroke="none" stroke-width="1" dx="0em" dy=".95em" transform="translate(0, 8)" style="text-anchor:middle;visibility:inherit;font-family:Roboto,sans-serif;font-size:12px;font-weight:200">3k</text><text x="139.219" y="0" fill="#32313F" stroke="none" stroke-width="1" dx="0em" dy=".95em" transform="translate(0, 8)" style="text-anchor:middle;visibility:inherit;font-family:Roboto,sans-serif;font-size:12px;font-weight:200">4k</text><text x="174.023" y="0" fill="#32313F" stroke="none" stroke-width="1" dx="0em" dy=".95em" transform="translate(0, 8)" style="text-anchor:middle;visibility:inherit;font-family:Roboto,sans-serif;font-size:12px;font-weight:200">5k</text><text x="208.828" y="0" fill="#32313F" stroke="none" stroke-width="1" dx="0em" dy=".95em" transform="translate(0, 8)" style="text-anchor:middle;visibility:inherit;font-family:Roboto,sans-serif;font-size:12px;font-weight:200">6k</text><text x="243.633" y="0" fill="#32313F" stroke="none" stroke-width="1" dx="0em" dy=".95em" transform="translate(0, 8)" style="text-anchor:middle;visibility:inherit;font-family:Roboto,sans-serif;font-size:12px;font-weight:200">7k</text><text x="278.438" y="0" fill="#32313F" stroke="none" stroke-width="1" dx="0em" dy=".95em" transform="translate(0, 8)" style="text-anchor:middle;visibility:hidden;font-family:Roboto,sans-serif;font-size:12px;font-weight:200">8k</text></g><line x1="0" x2="278.438" y1="0" y2="0" fill="#000" stroke="#CCC" stroke-width="1"/></g></g></g></g></svg>